<?xml version="1.0" standalone="no"?>
<!DOCTYPE svg PUBLIC "-//W3C//DTD SVG 20010904//EN"
 "http://www.w3.org/TR/2001/REC-SVG-20010904/DTD/svg10.dtd">
<svg version="1.0" xmlns="http://www.w3.org/2000/svg"
 width="295.000000pt" height="295.000000pt" viewBox="0 0 295.000000 295.000000"
 preserveAspectRatio="xMidYMid meet">

<g transform="translate(0.000000,295.000000) scale(0.100000,-0.100000)"
fill="#000000" stroke="none">
<path d="M1650 2876 c-234 -53 -345 -295 -224 -487 25 -40 91 -98 139 -121
204 -102 466 21 506 236 42 227 -184 426 -421 372z"/>
<path d="M1290 1914 c-82 -17 -190 -49 -300 -90 l-127 -47 -17 -70 c-9 -38
-14 -72 -12 -75 3 -2 27 3 53 13 28 10 90 19 148 22 83 4 106 1 134 -14 53
-27 72 -62 78 -134 7 -89 -13 -188 -111 -536 -108 -384 -119 -439 -114 -572 4
-123 22 -169 94 -244 107 -112 337 -156 544 -105 41 10 331 115 338 123 3 2
41 140 42 151 0 1 -35 -9 -77 -23 -64 -20 -94 -24 -163 -21 -136 6 -181 41
-188 151 -6 87 18 208 88 457 111 393 129 472 136 587 8 126 -6 189 -57 267
-69 104 -186 157 -359 162 -58 1 -116 0 -130 -2z"/>
</g>
</svg>
